#N canvas -8 -8 1920 992 10;
#X obj 11 36 s android;
#X obj 11 13 r android_synth;
#X obj 138 15 External Binding Successful;
#X obj 160 265 tgl 14 0 empty empty empty 17 7 0 10 #fcfcfc #000000
#000000 0 1;
#X obj 160 286 sel 0;
#X obj 205 287 sel 1;
#X msg 205 320 0 100;
#X msg 160 343 0.1 100;
#X obj 160 237 r b1;
#X obj 101 288 mtof;
#X obj 102 413 *~;
#X obj 101 345 osc~;
#X msg 101 258 60;
#X obj 180 387 line~;
#X obj 330 264 tgl 14 0 empty empty empty 17 7 0 10 #fcfcfc #000000
#000000 0 1;
#X obj 330 285 sel 0;
#X obj 375 286 sel 1;
#X msg 375 319 0 100;
#X msg 330 342 0.1 100;
#X obj 271 287 mtof;
#X obj 272 412 *~;
#X obj 271 314 osc~;
#X obj 350 386 line~;
#X obj 491 269 tgl 14 0 empty empty empty 17 7 0 10 #fcfcfc #000000
#000000 0 1;
#X obj 491 290 sel 0;
#X obj 536 291 sel 1;
#X msg 536 324 0 100;
#X msg 491 347 0.1 100;
#X obj 432 292 mtof;
#X obj 433 417 *~;
#X obj 432 319 osc~;
#X obj 511 391 line~;
#X obj 660 259 tgl 14 0 empty empty empty 17 7 0 10 #fcfcfc #000000
#000000 0 1;
#X obj 660 280 sel 0;
#X obj 705 281 sel 1;
#X msg 705 314 0 100;
#X msg 660 337 0.1 100;
#X obj 601 282 mtof;
#X obj 602 407 *~;
#X obj 601 309 osc~;
#X obj 680 381 line~;
#X obj 830 258 tgl 14 0 empty empty empty 17 7 0 10 #fcfcfc #000000
#000000 0 1;
#X obj 830 279 sel 0;
#X obj 875 280 sel 1;
#X msg 875 313 0 100;
#X msg 830 336 0.1 100;
#X obj 771 281 mtof;
#X obj 772 406 *~;
#X obj 771 308 osc~;
#X obj 850 380 line~;
#X obj 991 263 tgl 14 0 empty empty empty 17 7 0 10 #fcfcfc #000000
#000000 0 1;
#X obj 991 284 sel 0;
#X obj 1036 285 sel 1;
#X msg 1036 318 0 100;
#X msg 991 341 0.1 100;
#X obj 932 286 mtof;
#X obj 933 411 *~;
#X obj 932 313 osc~;
#X obj 1011 385 line~;
#X obj 1147 257 tgl 14 0 empty empty empty 17 7 0 10 #fcfcfc #000000
#000000 0 1;
#X obj 1147 278 sel 0;
#X obj 1192 279 sel 1;
#X msg 1192 312 0 100;
#X msg 1147 335 0.1 100;
#X obj 1088 280 mtof;
#X obj 1089 405 *~;
#X obj 1088 307 osc~;
#X obj 1167 379 line~;
#X obj 1317 256 tgl 14 0 empty empty empty 17 7 0 10 #fcfcfc #000000
#000000 0 1;
#X obj 1317 277 sel 0;
#X obj 1362 278 sel 1;
#X msg 1362 311 0 100;
#X msg 1317 334 0.1 100;
#X obj 1258 279 mtof;
#X obj 1259 404 *~;
#X obj 1258 306 osc~;
#X obj 1337 378 line~;
#X obj 1478 261 tgl 14 0 empty empty empty 17 7 0 10 #fcfcfc #000000
#000000 0 1;
#X obj 1478 282 sel 0;
#X obj 1523 283 sel 1;
#X msg 1523 316 0 100;
#X msg 1478 339 0.1 100;
#X obj 1419 284 mtof;
#X obj 1420 409 *~;
#X obj 1419 311 osc~;
#X obj 1498 383 line~;
#X obj 1647 251 tgl 14 0 empty empty empty 17 7 0 10 #fcfcfc #000000
#000000 0 1;
#X obj 1647 272 sel 0;
#X obj 1692 273 sel 1;
#X msg 1692 306 0 100;
#X msg 1647 329 0.1 100;
#X obj 1588 274 mtof;
#X obj 1589 399 *~;
#X obj 1588 301 osc~;
#X obj 1667 373 line~;
#X obj 1817 250 tgl 14 0 empty empty empty 17 7 0 10 #fcfcfc #000000
#000000 0 1;
#X obj 1817 271 sel 0;
#X obj 1862 272 sel 1;
#X msg 1862 305 0 100;
#X msg 1817 328 0.1 100;
#X obj 1758 273 mtof;
#X obj 1759 398 *~;
#X obj 1758 300 osc~;
#X obj 1837 372 line~;
#X obj 1978 255 tgl 14 0 empty empty empty 17 7 0 10 #fcfcfc #000000
#000000 0 1;
#X obj 1978 276 sel 0;
#X obj 2023 277 sel 1;
#X msg 2023 310 0 100;
#X msg 1978 333 0.1 100;
#X obj 1919 278 mtof;
#X obj 1920 403 *~;
#X obj 1919 305 osc~;
#X obj 1998 377 line~;
#X msg 271 257 61;
#X msg 601 252 62;
#X msg 771 251 63;
#X msg 932 256 64;
#X msg 1088 250 65;
#X msg 1258 249 66;
#X msg 1419 254 67;
#X msg 1588 244 68;
#X msg 1758 243 69;
#X msg 1919 248 70;
#X msg 432 262 71;
#X obj 491 241 r b12;
#X obj 330 236 r b2;
#X obj 660 231 r b3;
#X obj 830 230 r b4;
#X obj 991 235 r b5;
#X obj 1147 229 r b6;
#X obj 1317 228 r b7;
#X obj 1478 233 r b8;
#X obj 1647 223 r b9;
#X obj 1817 222 r b10;
#X obj 1978 227 r b11;
#X obj 915 617 dac~ 1;
#X obj 915 553 /~ 6;
#X connect 1 0 0 0;
#X connect 3 0 4 0;
#X connect 3 0 5 0;
#X connect 4 0 7 0;
#X connect 5 0 6 0;
#X connect 6 0 13 0;
#X connect 7 0 13 0;
#X connect 8 0 3 0;
#X connect 8 0 12 0;
#X connect 9 0 11 0;
#X connect 10 0 136 0;
#X connect 11 0 10 0;
#X connect 12 0 9 0;
#X connect 13 0 10 1;
#X connect 14 0 15 0;
#X connect 14 0 16 0;
#X connect 15 0 18 0;
#X connect 16 0 17 0;
#X connect 17 0 22 0;
#X connect 18 0 22 0;
#X connect 19 0 21 0;
#X connect 20 0 136 0;
#X connect 21 0 20 0;
#X connect 22 0 20 1;
#X connect 23 0 24 0;
#X connect 23 0 25 0;
#X connect 24 0 27 0;
#X connect 25 0 26 0;
#X connect 26 0 31 0;
#X connect 27 0 31 0;
#X connect 28 0 30 0;
#X connect 29 0 136 0;
#X connect 30 0 29 0;
#X connect 31 0 29 1;
#X connect 32 0 33 0;
#X connect 32 0 34 0;
#X connect 33 0 36 0;
#X connect 34 0 35 0;
#X connect 35 0 40 0;
#X connect 36 0 40 0;
#X connect 37 0 39 0;
#X connect 38 0 136 0;
#X connect 39 0 38 0;
#X connect 40 0 38 1;
#X connect 41 0 42 0;
#X connect 41 0 43 0;
#X connect 42 0 45 0;
#X connect 43 0 44 0;
#X connect 44 0 49 0;
#X connect 45 0 49 0;
#X connect 46 0 48 0;
#X connect 47 0 136 0;
#X connect 48 0 47 0;
#X connect 49 0 47 1;
#X connect 50 0 51 0;
#X connect 50 0 52 0;
#X connect 51 0 54 0;
#X connect 52 0 53 0;
#X connect 53 0 58 0;
#X connect 54 0 58 0;
#X connect 55 0 57 0;
#X connect 56 0 136 0;
#X connect 57 0 56 0;
#X connect 58 0 56 1;
#X connect 59 0 60 0;
#X connect 59 0 61 0;
#X connect 60 0 63 0;
#X connect 61 0 62 0;
#X connect 62 0 67 0;
#X connect 63 0 67 0;
#X connect 64 0 66 0;
#X connect 65 0 136 0;
#X connect 66 0 65 0;
#X connect 67 0 65 1;
#X connect 68 0 69 0;
#X connect 68 0 70 0;
#X connect 69 0 72 0;
#X connect 70 0 71 0;
#X connect 71 0 76 0;
#X connect 72 0 76 0;
#X connect 73 0 75 0;
#X connect 74 0 136 0;
#X connect 75 0 74 0;
#X connect 76 0 74 1;
#X connect 77 0 78 0;
#X connect 77 0 79 0;
#X connect 78 0 81 0;
#X connect 79 0 80 0;
#X connect 80 0 85 0;
#X connect 81 0 85 0;
#X connect 82 0 84 0;
#X connect 83 0 136 0;
#X connect 84 0 83 0;
#X connect 85 0 83 1;
#X connect 86 0 87 0;
#X connect 86 0 88 0;
#X connect 87 0 90 0;
#X connect 88 0 89 0;
#X connect 89 0 94 0;
#X connect 90 0 94 0;
#X connect 91 0 93 0;
#X connect 92 0 136 0;
#X connect 93 0 92 0;
#X connect 94 0 92 1;
#X connect 95 0 96 0;
#X connect 95 0 97 0;
#X connect 96 0 99 0;
#X connect 97 0 98 0;
#X connect 98 0 103 0;
#X connect 99 0 103 0;
#X connect 100 0 102 0;
#X connect 101 0 136 0;
#X connect 102 0 101 0;
#X connect 103 0 101 1;
#X connect 104 0 105 0;
#X connect 104 0 106 0;
#X connect 105 0 108 0;
#X connect 106 0 107 0;
#X connect 107 0 112 0;
#X connect 108 0 112 0;
#X connect 109 0 111 0;
#X connect 110 0 136 0;
#X connect 111 0 110 0;
#X connect 112 0 110 1;
#X connect 113 0 19 0;
#X connect 114 0 37 0;
#X connect 115 0 46 0;
#X connect 116 0 55 0;
#X connect 117 0 64 0;
#X connect 118 0 73 0;
#X connect 119 0 82 0;
#X connect 120 0 91 0;
#X connect 121 0 100 0;
#X connect 122 0 109 0;
#X connect 123 0 28 0;
#X connect 124 0 23 0;
#X connect 124 0 123 0;
#X connect 125 0 14 0;
#X connect 125 0 113 0;
#X connect 126 0 32 0;
#X connect 126 0 114 0;
#X connect 127 0 41 0;
#X connect 127 0 115 0;
#X connect 128 0 50 0;
#X connect 128 0 116 0;
#X connect 129 0 59 0;
#X connect 129 0 117 0;
#X connect 130 0 68 0;
#X connect 130 0 118 0;
#X connect 131 0 77 0;
#X connect 131 0 119 0;
#X connect 132 0 86 0;
#X connect 132 0 120 0;
#X connect 133 0 95 0;
#X connect 133 0 121 0;
#X connect 134 0 104 0;
#X connect 134 0 122 0;
#X connect 136 0 135 0;
